<?xml version="1.0" standalone="no"?>
<!DOCTYPE svg PUBLIC "-//W3C//DTD SVG 20010904//EN"
 "http://www.w3.org/TR/2001/REC-SVG-20010904/DTD/svg10.dtd">
<svg version="1.0" xmlns="http://www.w3.org/2000/svg"
 width="280.000000pt" height="280.000000pt" viewBox="0 0 280.000000 280.000000"
 preserveAspectRatio="xMidYMid meet">

<g transform="translate(0.000000,280.000000) scale(0.100000,-0.100000)"
fill="#000000" stroke="none">
<path d="M0 2303 l0 -498 73 1 c93 1 99 3 57 17 -39 13 -51 45 -25 67 14 11
26 11 68 1 29 -7 68 -15 87 -18 19 -3 41 -10 49 -16 18 -15 83 -37 92 -31 4 2
5 31 2 64 -8 86 19 130 69 114 18 -5 20 -14 17 -107 -2 -56 -8 -110 -13 -119
-13 -22 -1 -34 18 -19 20 17 36 5 36 -25 0 -15 4 -23 10 -19 6 4 10 16 9 28
-4 40 1 57 15 57 8 0 17 -7 20 -17 6 -14 8 -14 20 3 14 18 15 18 35 -6 14 -17
20 -20 21 -10 1 28 17 42 39 35 25 -8 28 -30 5 -39 -13 -5 -14 -9 -4 -21 15
-18 40 -20 40 -2 0 23 21 37 40 27 14 -7 17 -6 16 8 -1 13 9 18 43 20 28 2 47
-1 53 -10 7 -10 12 -9 24 7 15 20 16 20 29 1 11 -15 17 -16 28 -8 16 14 103
25 128 17 10 -3 20 -17 23 -30 4 -14 13 -25 21 -25 21 0 28 -19 13 -37 -10
-13 -10 -17 0 -20 17 -6 15 -28 -3 -43 -20 -17 -19 -55 3 -92 13 -23 14 -32 4
-35 -7 -3 -12 -24 -12 -58 0 -41 4 -54 18 -60 15 -6 15 -8 -5 -24 -21 -18 -23
-61 -2 -61 15 0 10 -27 -7 -41 -11 -9 -14 -22 -10 -42 3 -17 1 -36 -5 -43 -6
-8 -9 -24 -6 -36 4 -12 1 -28 -4 -35 -6 -6 -7 -18 -3 -24 4 -7 6 -37 5 -66 -2
-40 2 -60 18 -82 25 -34 27 -51 6 -51 -37 0 -41 -101 -5 -120 15 -8 16 -16 8
-54 -8 -40 -7 -48 11 -67 23 -25 25 -22 36 46 4 22 11 46 17 52 7 9 7 17 -1
27 -13 15 -32 108 -21 101 4 -3 13 2 20 10 10 12 9 20 -4 40 -19 29 -21 115
-3 134 10 10 8 15 -7 26 -10 8 -15 19 -10 26 8 14 10 211 2 225 -7 12 -4 81 4
90 4 4 3 15 -3 25 -7 13 -5 29 6 55 18 43 19 76 3 92 -8 8 -8 15 0 25 6 7 12
49 14 92 l3 80 108 3 c89 2 108 0 113 -13 3 -8 12 -15 19 -15 8 0 15 -22 19
-62 6 -51 5 -64 -8 -74 -21 -15 -20 -18 9 -50 32 -35 52 -21 32 22 -8 17 -13
61 -13 109 l1 80 32 3 c18 2 48 -1 67 -7 20 -5 38 -6 41 -1 3 4 30 7 61 6 68
-2 85 -19 77 -74 -6 -33 -5 -36 9 -24 18 14 22 10 32 -32 6 -24 3 -33 -15 -47
-22 -16 -22 -18 -6 -43 22 -34 21 -73 -3 -121 l-20 -39 31 -28 c16 -15 37 -28
45 -28 8 0 14 -7 14 -15 0 -8 -7 -15 -15 -15 -7 0 -18 -6 -22 -12 -4 -7 -17
-18 -27 -24 -11 -6 -22 -17 -25 -25 -4 -12 -2 -12 12 0 14 11 18 11 23 -3 9
-24 -3 -46 -26 -46 -11 0 -20 -7 -20 -15 0 -9 8 -14 23 -12 17 1 23 -4 25 -25
2 -15 -2 -37 -8 -48 -8 -16 -8 -25 0 -35 7 -9 8 -15 0 -20 -5 -3 -10 -1 -10 4
0 6 -7 11 -15 11 -18 0 -19 -5 -3 -30 10 -15 9 -24 -1 -44 -12 -22 -12 -29 2
-50 14 -21 14 -26 2 -36 -10 -9 -12 -17 -5 -30 6 -11 5 -28 -3 -49 -9 -24 -9
-33 1 -43 9 -9 12 -7 12 10 0 13 6 22 15 22 19 0 20 -49 1 -56 -23 -9 -28 -35
-10 -55 24 -27 43 -23 50 9 4 15 11 32 16 39 19 24 20 130 2 168 -16 34 -16
39 -1 70 13 28 14 35 3 44 -8 6 -16 37 -18 69 -5 53 2 82 33 144 5 10 5 20 -1
23 -18 11 -11 43 11 50 34 11 20 47 -28 70 -50 23 -57 54 -19 75 20 10 24 18
19 41 -5 28 -4 29 32 29 47 0 43 23 -6 30 l-34 5 4 83 c2 62 0 82 -10 82 -7 0
-3 10 10 24 20 21 32 24 92 24 59 0 69 -2 74 -19 4 -11 18 -27 32 -36 24 -16
25 -18 20 -118 -4 -104 -17 -145 -42 -145 -8 0 -17 11 -21 24 -4 17 -14 25
-37 29 -18 2 -34 3 -36 1 -2 -1 5 -21 15 -43 12 -26 24 -39 33 -36 7 3 20 0
29 -7 8 -7 25 -13 36 -13 17 0 22 -8 28 -45 3 -25 2 -74 -3 -110 -4 -36 -6
-89 -2 -117 5 -44 3 -53 -10 -53 -8 0 -18 7 -21 16 -5 14 -10 12 -31 -10 -30
-32 -34 -76 -7 -76 10 0 23 5 29 11 21 21 45 2 42 -33 -4 -57 0 -68 22 -68 15
0 19 4 15 16 -4 9 -2 22 3 28 17 22 19 103 3 120 -17 17 -18 116 -2 147 14 25
12 93 -2 107 -8 8 -8 15 0 25 9 10 9 29 2 68 -5 30 -9 63 -9 74 1 11 -4 34
-11 50 -11 26 -10 37 5 69 13 28 15 40 6 49 -15 15 -14 70 1 85 22 22 77 14
103 -14 24 -26 25 -26 25 -5 0 11 3 21 8 22 39 3 200 4 210 1 20 -7 14 -19
-18 -32 -35 -14 -40 -45 -9 -53 15 -4 19 -11 14 -25 -8 -27 9 -36 28 -14 9 10
17 40 19 72 l3 55 73 3 c39 2 72 -1 73 -5 6 -93 12 -113 35 -113 16 0 19 26 4
35 -5 3 -10 17 -10 30 0 32 41 59 77 52 56 -10 53 -34 53 499 l0 494 -129 0
-128 0 -7 -62 c-11 -97 -27 -105 -118 -64 -94 43 -132 56 -200 70 -76 16 -88
22 -88 42 0 12 -99 14 -714 14 l-713 0 -6 -30 c-10 -49 -32 -36 -30 18 1 9
-25 12 -96 12 l-96 0 0 -75 c0 -71 -2 -77 -31 -104 -41 -38 -68 -46 -104 -27
-28 14 -33 13 -76 -11 -44 -25 -46 -25 -88 -9 -23 9 -53 31 -67 49 -21 28 -24
42 -22 105 l1 72 -44 0 -44 0 0 -497z m693 360 c3 -16 6 -51 6 -78 0 -28 5
-63 10 -78 18 -47 14 -60 -15 -53 -14 4 -23 3 -20 -2 10 -16 -58 -105 -88
-115 -34 -11 -46 2 -46 51 0 18 -5 42 -11 53 -8 16 -6 30 10 64 18 39 41 61
96 91 11 6 21 24 23 40 6 60 27 75 35 27z m1015 -5 c13 -13 15 -86 6 -190 -8
-82 -20 -89 -89 -53 -47 26 -115 50 -205 75 -81 22 -92 28 -88 53 2 18 10 23
43 25 46 4 141 -20 208 -54 27 -13 53 -24 58 -24 5 0 9 36 9 80 0 65 3 81 18
89 22 13 26 13 40 -1z m-1550 -221 c2 -10 -3 -17 -12 -17 -18 0 -29 16 -21 31
9 14 29 6 33 -14z m2328 -25 c33 -28 49 -63 33 -73 -19 -11 -127 -23 -256 -27
-58 -2 -62 -3 -72 -32 -12 -35 -45 -41 -61 -11 -16 31 -13 137 6 155 24 24 45
19 57 -14 l11 -30 93 0 c93 0 94 0 104 27 18 48 35 49 85 5z m-2037 -17 c17
-20 33 -48 37 -63 3 -15 7 -33 9 -39 4 -13 -24 -73 -54 -111 -14 -19 -28 -24
-69 -25 -46 -2 -54 1 -79 29 -16 17 -37 48 -47 70 -11 21 -32 53 -46 69 -15
17 -30 37 -33 46 -7 20 11 39 36 39 25 0 94 -74 121 -130 17 -35 27 -45 46
-45 22 0 25 5 28 43 2 27 -3 53 -12 67 -16 25 -21 66 -9 78 15 16 43 5 72 -28z
m-291 -125 c7 -98 -39 -156 -73 -91 -27 52 5 145 48 139 18 -2 23 -11 25 -48z
m1305 -63 c30 -21 87 -93 87 -110 0 -6 11 -25 25 -43 23 -30 28 -32 45 -21 28
17 28 99 0 134 -30 38 -26 63 9 63 55 0 99 -91 85 -173 -8 -53 -60 -107 -100
-107 -46 0 -90 34 -119 92 -37 74 -74 120 -93 116 -15 -3 -16 -15 -14 -85 5
-110 -15 -147 -60 -106 -15 14 -18 32 -18 129 0 106 1 114 23 129 28 20 89 11
130 -18z m-874 -118 c-13 -10 -28 -19 -32 -19 -12 0 11 38 25 43 26 9 30 -6 7
-24z m271 -85 c0 -53 -34 -118 -79 -152 -23 -17 -43 -22 -86 -21 -30 1 -55 5
-55 8 0 4 20 12 44 19 28 7 58 25 80 48 31 32 36 44 38 88 0 28 1 58 0 66 -1
8 1 22 4 30 4 12 11 9 30 -13 18 -21 24 -40 24 -73z m-315 -29 c1 -30 -2 -52
-5 -50 -10 6 -21 95 -14 107 11 18 19 -3 19 -57z m60 -105 c3 -5 -1 -10 -9
-10 -8 0 -18 5 -21 10 -3 6 1 10 9 10 8 0 18 -4 21 -10z m1473 -78 c2 -7 -4
-15 -13 -18 -20 -8 -27 -1 -19 20 7 18 25 17 32 -2z m-907 -7 c-1 -15 -24 -12
-29 3 -3 9 2 13 12 10 10 -1 17 -7 17 -13z m-1 -675 c0 -5 -4 -10 -10 -10 -5
0 -10 5 -10 10 0 6 5 10 10 10 6 0 10 -4 10 -10z m687 -195 c5 -16 -14 -38
-26 -31 -18 12 -13 48 6 44 9 -2 18 -7 20 -13z"/>
<path d="M176 2787 c-25 -18 -25 -106 0 -124 40 -29 84 -3 84 50 0 43 13 59
41 55 20 -2 25 -10 27 -39 3 -41 33 -75 57 -66 16 7 21 70 9 115 -6 21 -11 22
-103 22 -64 0 -103 -4 -115 -13z"/>
<path d="M2350 2795 c0 -7 82 -45 97 -45 7 0 13 11 13 25 0 24 -3 25 -55 25
-30 0 -55 -2 -55 -5z"/>
<path d="M360 1790 c0 -5 5 -10 10 -10 6 0 10 5 10 10 0 6 -4 10 -10 10 -5 0
-10 -4 -10 -10z"/>
<path d="M837 1763 c-8 -7 21 -43 35 -43 15 0 8 38 -8 44 -19 7 -19 7 -27 -1z"/>
<path d="M1961 1748 c1 -13 4 -34 9 -48 7 -24 7 -23 15 12 7 37 2 58 -16 58
-5 0 -9 -10 -8 -22z"/>
<path d="M931 1744 c-1 -24 24 -62 35 -51 4 4 0 13 -8 20 -9 6 -18 21 -21 32
-5 19 -5 19 -6 -1z"/>
<path d="M1 1685 c0 -35 2 -37 11 -19 7 15 7 28 -1 40 -9 16 -10 12 -10 -21z"/>
<path d="M2221 1684 c0 -11 3 -14 6 -6 3 7 2 16 -1 19 -3 4 -6 -2 -5 -13z"/>
<path d="M2026 1675 c-3 -8 -1 -15 4 -15 6 0 10 7 10 15 0 8 -2 15 -4 15 -2 0
-6 -7 -10 -15z"/>
<path d="M1943 1663 c-22 -4 -22 -5 -6 -29 11 -18 19 -22 26 -15 29 29 57 6
57 -45 0 -14 6 -24 14 -24 22 0 28 17 21 50 -5 23 -17 35 -48 50 -22 11 -41
19 -41 19 -1 -1 -11 -4 -23 -6z"/>
<path d="M2672 1649 c2 -6 8 -10 13 -10 5 0 11 4 13 10 2 6 -4 11 -13 11 -9 0
-15 -5 -13 -11z"/>
<path d="M2227 1633 c-10 -9 -8 -33 2 -33 5 0 11 9 14 20 5 20 -3 26 -16 13z"/>
<path d="M2438 1621 c-9 -10 -22 -23 -30 -27 -13 -8 -42 -143 -33 -153 3 -2
10 1 17 7 7 5 24 12 38 14 24 3 25 5 27 91 1 48 1 87 -1 87 -1 0 -9 -9 -18
-19z"/>
<path d="M190 1620 c0 -5 7 -10 15 -10 8 0 15 5 15 10 0 6 -7 10 -15 10 -8 0
-15 -4 -15 -10z"/>
<path d="M1014 1578 c0 -29 4 -56 9 -59 15 -11 -1 -42 -18 -35 -8 3 -15 1 -15
-3 0 -5 5 -11 10 -13 6 -2 12 -25 15 -51 3 -27 7 -53 11 -58 16 -27 22 3 19
109 -3 162 -3 162 -18 162 -9 0 -13 -16 -13 -52z"/>
<path d="M735 1604 c-14 -15 -14 -17 2 -29 14 -11 16 -16 6 -26 -12 -12 -18
-49 -9 -49 2 0 20 7 40 15 38 16 47 39 20 49 -11 4 -15 14 -12 31 4 19 1 25
-13 25 -10 0 -25 -7 -34 -16z"/>
<path d="M503 1603 c-8 -3 -11 -14 -7 -28 8 -33 -9 -38 -49 -15 -43 25 -69 18
-65 -19 2 -18 10 -27 26 -29 13 -2 26 -10 29 -18 7 -19 23 -18 23 1 0 8 9 15
20 15 11 0 20 -7 20 -15 0 -8 5 -15 10 -15 6 0 10 5 10 10 0 13 41 29 58 23
19 -8 14 -17 -18 -36 -24 -15 -30 -25 -30 -54 0 -26 -5 -36 -20 -40 -28 -7
-25 -27 6 -44 23 -12 27 -11 39 4 16 22 28 7 20 -25 -3 -13 0 -31 9 -43 14
-19 15 -17 16 27 0 42 3 48 24 54 35 8 46 -2 46 -43 l0 -36 30 42 c26 36 34
40 58 35 15 -4 35 -11 45 -16 12 -6 23 -5 34 3 13 12 14 7 8 -43 -7 -56 -7
-56 21 -60 20 -2 30 -10 34 -28 4 -17 8 -21 14 -12 4 7 16 10 26 7 23 -7 34 9
26 40 -4 15 -15 25 -29 27 -18 2 -22 10 -24 38 0 19 -4 45 -8 58 -6 17 -3 22
11 23 11 0 14 3 7 6 -16 6 -17 44 -1 77 9 21 8 29 -5 44 -19 21 -13 32 15 32
23 0 23 12 -2 35 -24 22 -54 13 -45 -14 4 -14 0 -21 -15 -26 -20 -6 -20 -8 -6
-24 22 -24 21 -100 0 -108 -11 -4 -22 1 -31 13 -12 16 -15 17 -23 4 -5 -8 -10
-17 -10 -20 0 -3 -18 -6 -39 -6 -31 -1 -40 3 -44 17 -6 21 -37 26 -37 6 0 -7
-7 -22 -15 -34 -13 -18 -19 -20 -43 -11 -23 9 -28 17 -29 44 -1 41 3 42 38 8
26 -25 28 -25 38 -6 13 24 6 32 -31 32 -21 0 -28 5 -28 20 0 25 39 43 59 26
11 -9 13 -7 7 10 -5 16 0 24 21 34 l28 14 -25 4 c-14 2 -30 9 -35 17 -6 7 -20
15 -30 17 -16 2 -19 -2 -17 -21 1 -14 -3 -28 -10 -32 -14 -9 -38 8 -38 27 0
23 -39 39 -67 27z"/>
<path d="M245 1580 c-4 -6 -23 -9 -42 -8 -22 2 -38 -2 -40 -9 -3 -7 2 -13 11
-13 9 0 16 -7 16 -15 0 -23 -63 -19 -85 5 -23 25 -32 25 -40 0 -5 -17 -9 -18
-26 -7 -16 10 -21 9 -29 -3 -15 -23 -12 -40 6 -40 9 0 18 -9 21 -20 6 -23 14
-25 30 -9 7 7 24 13 40 14 80 7 151 18 164 25 11 8 11 12 -6 24 -17 13 -18 15
-3 16 26 0 30 15 9 34 -13 12 -21 14 -26 6z"/>
<path d="M2536 1569 c-8 -35 7 -94 24 -94 22 0 20 82 -2 102 -16 14 -18 13
-22 -8z"/>
<path d="M2620 1526 c0 -7 7 -19 15 -26 8 -7 15 -23 15 -36 0 -13 4 -24 9 -24
5 0 11 -8 15 -17 3 -10 9 -24 12 -32 5 -10 2 -12 -9 -8 -16 6 -31 -18 -21 -34
7 -12 34 -12 34 0 0 5 7 17 17 26 15 16 15 19 0 45 -10 15 -17 39 -17 52 0 28
-8 39 -37 56 -29 15 -33 15 -33 -2z"/>
<path d="M1600 1511 c0 -6 5 -13 10 -16 6 -3 10 1 10 9 0 9 -4 16 -10 16 -5 0
-10 -4 -10 -9z"/>
<path d="M320 1495 c0 -8 6 -15 14 -15 7 0 19 7 26 15 11 13 8 15 -14 15 -16
0 -26 -5 -26 -15z"/>
<path d="M1460 1502 c0 -5 7 -17 15 -28 20 -26 19 -31 -12 -46 -36 -18 -40
-36 -9 -48 14 -5 26 -17 26 -26 0 -27 25 -9 28 21 2 16 11 35 20 42 16 12 16
14 0 27 -10 7 -18 18 -18 23 0 11 -32 43 -43 43 -4 0 -7 -4 -7 -8z"/>
<path d="M690 1481 c0 -12 46 -41 65 -41 9 0 15 6 12 13 -2 6 -12 11 -21 9 -9
-2 -19 4 -22 13 -6 16 -34 21 -34 6z"/>
<path d="M305 1459 c-10 -15 3 -25 16 -12 7 7 7 13 1 17 -6 3 -14 1 -17 -5z"/>
<path d="M415 1450 c-3 -5 -1 -10 4 -10 6 0 11 5 11 10 0 6 -2 10 -4 10 -3 0
-8 -4 -11 -10z"/>
<path d="M1945 1450 c-3 -5 -1 -10 4 -10 6 0 11 5 11 10 0 6 -2 10 -4 10 -3 0
-8 -4 -11 -10z"/>
<path d="M242 1438 c2 -6 10 -14 16 -16 7 -2 10 2 6 12 -7 18 -28 22 -22 4z"/>
<path d="M366 1435 c4 -8 12 -15 20 -15 19 0 18 16 -2 24 -22 9 -24 8 -18 -9z"/>
<path d="M2380 1401 c-18 -44 -9 -53 23 -25 24 20 27 27 17 39 -18 22 -26 19
-40 -14z"/>
<path d="M410 1400 c-25 -25 -39 -25 -56 -2 -12 16 -13 16 -19 0 -13 -33 1
-47 39 -41 27 4 37 2 42 -11 3 -9 16 -16 28 -16 30 0 51 -52 27 -68 -14 -10
-14 -12 2 -23 15 -9 18 -18 12 -48 -5 -29 -4 -34 6 -24 10 10 16 10 30 -3 16
-14 18 -14 24 6 7 22 -17 70 -35 70 -18 0 -10 18 10 23 18 5 19 7 4 36 -9 19
-23 31 -35 31 -13 0 -19 7 -19 24 0 13 5 26 11 28 5 2 7 11 4 21 -9 23 -50 22
-75 -3z"/>
<path d="M22 1368 c6 -18 58 -32 71 -19 14 14 10 17 -36 24 -26 4 -37 2 -35
-5z"/>
<path d="M185 1371 c-6 -11 9 -23 19 -14 9 9 7 23 -3 23 -6 0 -12 -4 -16 -9z"/>
<path d="M240 1365 c0 -22 40 -41 51 -24 13 21 11 26 -13 33 -33 9 -38 8 -38
-9z"/>
<path d="M1945 1360 c-3 -6 1 -7 9 -4 18 7 21 14 7 14 -6 0 -13 -4 -16 -10z"/>
<path d="M1772 1347 c-9 -11 -10 -17 -2 -22 15 -9 23 -1 18 21 -3 15 -4 16
-16 1z"/>
<path d="M2247 1346 c-7 -19 18 -42 28 -26 8 13 -1 40 -14 40 -5 0 -11 -6 -14
-14z"/>
<path d="M1917 1323 c-4 -3 -7 -12 -7 -20 0 -11 4 -11 20 -3 11 6 18 15 15 21
-7 11 -19 12 -28 2z"/>
<path d="M2663 1304 c3 -19 0 -32 -10 -39 -10 -8 -13 -19 -9 -33 10 -31 23
-27 30 11 12 57 11 80 -3 85 -10 3 -12 -2 -8 -24z"/>
<path d="M2016 1311 c-3 -5 1 -14 9 -21 13 -10 15 -9 15 9 0 21 -14 28 -24 12z"/>
<path d="M2386 1311 c-4 -5 -3 -17 0 -26 5 -13 8 -14 15 -3 5 7 9 19 9 26 0
14 -16 16 -24 3z"/>
<path d="M1600 1295 c0 -8 4 -15 9 -15 5 0 11 7 15 15 3 9 0 15 -9 15 -8 0
-15 -7 -15 -15z"/>
<path d="M295 1293 c-44 -10 -46 -11 -33 -38 14 -30 24 -32 33 -5 7 22 35 26
53 8 19 -19 23 -4 6 20 -15 22 -21 24 -59 15z"/>
<path d="M2242 1288 c-8 -8 -8 -15 -1 -24 8 -10 4 -20 -15 -41 -20 -21 -25
-34 -21 -53 8 -32 6 -32 43 -18 35 13 41 25 17 34 -8 4 -15 17 -15 30 0 15 6
24 15 24 8 0 15 -4 15 -10 0 -5 7 -10 15 -10 19 0 19 2 -6 44 -23 39 -29 42
-47 24z"/>
<path d="M0 1273 c0 -11 7 -26 15 -33 25 -21 29 -3 6 26 -19 24 -21 25 -21 7z"/>
<path d="M200 1279 c0 -5 9 -9 20 -9 11 0 20 2 20 4 0 2 -9 6 -20 9 -11 3 -20
1 -20 -4z"/>
<path d="M1472 1272 l-23 -18 20 -18 c18 -17 21 -17 27 -3 3 9 4 25 2 36 -3
19 -4 19 -26 3z"/>
<path d="M1028 1223 c-3 -59 0 -85 12 -97 7 -7 10 12 10 62 0 74 -18 103 -22
35z"/>
<path d="M1930 1253 c1 -12 51 -46 57 -39 9 8 -27 46 -44 46 -7 0 -13 -3 -13
-7z"/>
<path d="M700 1238 c1 -27 35 -54 65 -52 17 1 32 2 34 3 6 2 -83 61 -91 61 -5
0 -8 -6 -8 -12z"/>
<path d="M2405 1198 c-20 -21 -29 -40 -26 -56 1 -13 -3 -37 -10 -54 -10 -24
-16 -28 -36 -24 -17 5 -23 2 -23 -9 0 -13 7 -15 33 -10 28 6 35 2 55 -25 25
-33 21 -54 -9 -45 -20 7 -27 -9 -9 -20 7 -4 7 -12 0 -25 -15 -29 -13 -31 28
-28 35 3 37 4 35 38 -1 19 4 38 10 43 9 5 7 11 -7 22 -17 13 -18 23 -11 120 4
58 5 105 3 105 -1 -1 -16 -15 -33 -32z m5 -118 c0 -5 -4 -10 -10 -10 -5 0 -10
5 -10 10 0 6 5 10 10 10 6 0 10 -4 10 -10z"/>
<path d="M18 1198 c-11 -17 -17 -44 -17 -70 2 -34 3 -37 6 -13 3 17 11 38 20
47 8 9 13 27 11 39 -3 23 -3 23 -20 -3z"/>
<path d="M170 1192 c0 -18 39 -62 54 -62 5 0 6 9 3 20 -3 11 0 23 5 27 14 8
-19 33 -44 33 -11 0 -18 -7 -18 -18z"/>
<path d="M266 1194 c-10 -26 -7 -34 14 -34 15 0 20 7 20 25 0 28 -24 34 -34 9z"/>
<path d="M1456 1202 c-7 -11 5 -82 13 -82 3 0 14 12 24 25 17 24 17 25 -3 45
-22 22 -26 24 -34 12z"/>
<path d="M2661 1170 c-13 -32 -6 -52 27 -73 16 -11 16 -90 0 -85 -7 3 -15 15
-18 29 -7 29 -36 33 -33 4 6 -55 17 -85 29 -85 8 0 17 7 20 15 4 8 12 15 19
15 8 0 14 17 17 47 3 42 0 50 -26 75 -23 22 -27 31 -18 40 13 13 16 48 4 48
-4 0 -13 -14 -21 -30z"/>
<path d="M1996 1183 c-11 -11 -6 -23 9 -23 8 0 15 4 15 9 0 13 -16 22 -24 14z"/>
<path d="M380 1166 c0 -8 4 -17 8 -20 13 -8 35 11 28 23 -10 16 -36 14 -36 -3z"/>
<path d="M635 1170 c-3 -5 1 -10 9 -10 9 0 16 5 16 10 0 6 -4 10 -9 10 -6 0
-13 -4 -16 -10z"/>
<path d="M54 1156 c-14 -11 -16 -18 -8 -26 9 -9 9 -19 1 -41 -12 -30 -32 -38
-40 -16 -3 6 -6 -30 -6 -80 -1 -83 1 -93 17 -93 10 0 23 -5 30 -12 9 -9 12 -5
12 20 0 35 26 55 40 32 4 -7 15 -10 24 -7 9 4 34 0 57 -8 37 -13 45 -13 74 1
23 10 39 12 52 6 10 -5 33 -14 52 -20 31 -10 35 -9 58 18 31 38 56 38 93 0
l29 -30 23 30 c24 33 43 38 52 15 3 -8 15 -15 26 -15 11 0 23 -7 26 -15 4 -8
12 -15 19 -15 7 0 18 7 25 15 16 20 39 19 62 -2 14 -13 21 -14 30 -5 36 36 69
-18 58 -93 -13 -89 -30 -103 -106 -90 -67 12 -118 18 -146 17 -15 -1 -30 3
-33 8 -4 6 -17 7 -31 4 -19 -5 -26 -1 -33 17 -8 23 -8 23 -15 3 -5 -18 -13
-21 -55 -18 -26 1 -54 -2 -62 -6 -8 -6 -20 -3 -30 6 -16 14 -18 13 -24 -5 -3
-12 -11 -21 -17 -21 -22 0 -78 24 -78 33 0 5 -7 4 -16 -4 -12 -10 -22 -10 -49
0 -29 10 -39 9 -66 -4 -21 -11 -43 -15 -65 -10 -34 6 -34 6 -34 -32 l0 -38 63
1 c34 1 74 4 90 9 19 5 35 2 53 -10 26 -17 27 -16 51 9 28 30 40 32 73 9 33
-23 147 -26 160 -4 7 13 12 14 34 2 14 -8 54 -15 90 -15 47 -1 70 -6 84 -19
16 -14 29 -17 58 -11 22 3 44 10 49 14 6 5 27 11 47 15 27 5 38 13 40 29 2 17
9 21 41 20 38 -1 52 18 22 30 -18 6 -20 32 -4 42 12 7 58 -42 59 -62 0 -7 -7
-14 -15 -18 -18 -6 -20 -57 -4 -73 18 -18 2 -43 -26 -43 -30 0 -34 -25 -5 -40
32 -17 26 -56 -12 -74 -17 -9 -37 -16 -45 -16 -25 0 -9 -33 21 -43 23 -8 32
-6 41 7 16 21 35 21 35 -1 -1 -37 -25 -55 -67 -48 -21 4 -48 11 -61 18 -16 8
-25 8 -33 0 -6 -6 -25 -9 -43 -6 -17 3 -65 -2 -106 -10 -64 -13 -128 -16 -165
-7 -22 5 -35 -1 -35 -15 0 -17 -16 -20 -25 -5 -3 5 -19 7 -35 3 -19 -3 -30 -1
-30 6 0 6 -11 11 -25 11 -14 0 -25 -4 -25 -10 0 -18 -22 -10 -27 10 -7 25 -18
25 -41 2 -27 -27 -97 -42 -197 -43 l-85 -1 0 -65 c0 -43 3 -62 11 -57 6 3 8
17 5 29 -3 13 -1 27 5 30 15 10 47 -23 54 -56 4 -19 13 -29 25 -29 24 0 36 18
16 26 -18 7 -27 29 -20 49 4 10 20 15 44 15 22 0 42 5 45 10 8 14 55 13 55 -1
0 -7 9 -9 23 -6 12 4 29 2 37 -3 9 -5 19 -5 27 2 9 7 17 7 27 -1 12 -10 17 -8
26 8 14 28 87 30 97 3 4 -9 11 -20 17 -24 8 -5 7 -11 -2 -20 -20 -20 -14 -29
21 -26 31 3 32 5 35 51 3 45 5 47 25 40 30 -10 76 -6 93 8 11 9 17 9 28 0 8
-7 17 -8 20 -3 8 13 146 23 167 11 11 -5 16 -16 13 -24 -4 -8 -1 -15 5 -15 6
0 11 5 11 10 0 20 41 10 49 -12 7 -18 9 -15 15 23 l7 44 19 -25 c24 -31 24
-36 0 -67 -18 -23 -18 -27 -4 -48 18 -28 5 -65 -24 -66 -13 0 -11 -3 6 -9 43
-18 19 -89 -30 -90 -23 0 -23 -13 0 -33 11 -10 35 -17 59 -17 l40 0 1 98 c0
53 -4 107 -10 119 -8 17 -8 26 2 38 17 21 14 394 -4 423 -4 7 -4 18 1 25 4 6
8 38 8 69 0 51 -2 57 -18 52 -34 -11 -48 15 -48 85 0 36 -2 85 -5 109 -5 36
-10 42 -30 42 -12 0 -27 -8 -33 -17 -5 -10 -13 -14 -17 -10 -5 4 -3 17 4 27
16 26 15 55 -1 69 -11 8 -19 5 -36 -13 -29 -31 -107 -34 -117 -4 -8 25 -24 13
-24 -19 0 -16 7 -27 20 -30 11 -3 20 -9 20 -14 0 -9 -103 -3 -150 8 -14 3 -32
7 -40 7 -8 1 -16 10 -18 21 -5 26 -20 35 -57 35 -28 -1 -29 -2 -11 -15 11 -9
16 -20 12 -31 -4 -11 5 -27 31 -50 34 -30 36 -33 16 -34 -12 0 -25 5 -28 11
-4 6 -13 8 -20 5 -20 -7 -53 39 -57 80 -4 44 -25 57 -30 18 -4 -40 -28 -43
-28 -4 0 45 -24 33 -28 -14 -2 -24 -9 -39 -20 -42 -9 -3 -25 -10 -35 -15 -11
-6 -20 -9 -21 -7 -1 2 -8 12 -16 23 -14 19 -14 19 4 5 16 -13 20 -12 32 5 19
25 13 38 -20 50 -22 8 -30 6 -37 -8 -6 -9 -16 -17 -24 -17 -8 0 -21 -10 -30
-22 -16 -23 -16 -23 -30 -4 -8 11 -15 26 -15 33 0 7 -11 18 -25 23 -18 7 -25
17 -25 35 0 29 -8 31 -36 11z m28 -158 c-7 -7 -12 -8 -12 -2 0 14 12 26 19 19
2 -3 -1 -11 -7 -17z m823 -28 c-3 -5 -15 -10 -26 -10 -10 0 -19 5 -19 10 0 6
12 10 26 10 14 0 23 -4 19 -10z"/>
<path d="M580 1144 c0 -30 19 -28 31 4 7 18 5 22 -11 22 -15 0 -20 -7 -20 -26z"/>
<path d="M773 1133 c9 -9 19 -14 23 -11 10 10 -6 28 -24 28 -15 0 -15 -1 1
-17z"/>
<path d="M917 1144 c-15 -15 -6 -24 24 -24 20 0 29 4 27 13 -5 14 -40 21 -51
11z"/>
<path d="M2340 1110 c0 -5 5 -10 11 -10 5 0 7 5 4 10 -3 6 -8 10 -11 10 -2 0
-4 -4 -4 -10z"/>
<path d="M2620 1110 c0 -5 5 -10 10 -10 6 0 10 5 10 10 0 6 -4 10 -10 10 -5 0
-10 -4 -10 -10z"/>
<path d="M1457 1093 c-4 -3 -7 -17 -7 -30 0 -16 6 -23 20 -23 20 0 25 15 14
44 -7 17 -16 20 -27 9z"/>
<path d="M1030 1055 c0 -19 -4 -35 -10 -35 -5 0 -10 -9 -10 -20 0 -11 5 -20
10 -20 6 0 10 -7 10 -17 0 -9 3 -13 7 -10 11 12 14 137 3 137 -5 0 -10 -16
-10 -35z"/>
<path d="M1950 1032 c0 -14 11 -21 26 -15 21 8 17 23 -6 23 -11 0 -20 -4 -20
-8z"/>
<path d="M2200 1011 c0 -5 5 -13 10 -16 6 -3 10 -2 10 4 0 5 -4 13 -10 16 -5
3 -10 2 -10 -4z"/>
<path d="M1481 976 l-22 -23 25 -16 c30 -20 47 -5 39 36 -7 33 -13 34 -42 3z"/>
<path d="M2021 986 c-9 -11 -9 -16 0 -21 10 -7 28 10 29 28 0 12 -17 8 -29 -7z"/>
<path d="M2231 975 c-1 -23 16 -45 36 -45 20 0 15 21 -6 27 -11 3 -22 12 -24
22 -4 12 -5 11 -6 -4z"/>
<path d="M1605 970 c-3 -5 -1 -10 4 -10 6 0 11 5 11 10 0 6 -2 10 -4 10 -3 0
-8 -4 -11 -10z"/>
<path d="M1962 918 c-7 -28 -6 -34 11 -41 25 -9 46 -37 47 -59 0 -9 6 -21 13
-25 20 -12 57 -64 57 -79 0 -8 -7 -14 -15 -14 -17 0 -39 -36 -26 -44 5 -4 16
-4 24 0 21 8 33 -57 13 -71 -12 -9 -10 -14 9 -33 33 -32 39 -17 38 110 -1 87
-4 113 -17 127 -15 16 -15 19 -1 24 20 8 20 70 0 87 -16 13 -35 6 -35 -15 0
-7 -12 -16 -26 -19 -30 -8 -63 25 -64 62 0 33 -18 27 -28 -10z m138 -68 c0 -5
-2 -10 -4 -10 -3 0 -8 5 -11 10 -3 6 -1 10 4 10 6 0 11 -4 11 -10z"/>
<path d="M2616 924 c-3 -8 1 -26 10 -40 13 -19 14 -27 4 -39 -10 -12 -10 -18
0 -30 10 -12 10 -18 0 -30 -7 -8 -12 -42 -12 -77 0 -37 -5 -66 -11 -70 -8 -5
-6 -12 8 -22 18 -13 21 -13 27 2 4 9 7 31 7 48 1 38 20 94 32 94 5 0 9 11 9
24 0 13 7 29 15 36 16 13 20 57 7 76 -4 6 -19 14 -34 18 -16 3 -28 11 -28 16
0 16 -27 11 -34 -6z"/>
<path d="M2394 845 c5 -18 2 -25 -9 -25 -8 0 -15 -7 -15 -15 0 -9 9 -15 23
-15 13 0 28 -5 34 -11 16 -16 25 47 10 71 -6 11 -20 20 -30 20 -15 0 -18 -5
-13 -25z"/>
<path d="M1225 830 c-3 -5 1 -10 10 -10 9 0 13 5 10 10 -3 6 -8 10 -10 10 -2
0 -7 -4 -10 -10z"/>
<path d="M1490 826 c0 -9 5 -16 10 -16 6 0 10 4 10 9 0 6 -4 13 -10 16 -5 3
-10 -1 -10 -9z"/>
<path d="M1919 795 c-4 -5 -11 -27 -17 -47 -10 -35 -9 -37 19 -47 29 -10 37
-4 20 15 -5 5 -11 27 -13 49 -2 22 -6 36 -9 30z"/>
<path d="M670 765 c0 -8 5 -15 10 -15 6 0 10 7 10 15 0 8 -4 15 -10 15 -5 0
-10 -7 -10 -15z"/>
<path d="M1586 765 c-11 -9 -16 -20 -12 -30 7 -19 25 -16 40 8 15 24 -4 39
-28 22z"/>
<path d="M1430 740 c0 -5 5 -10 10 -10 6 0 10 5 10 10 0 6 -4 10 -10 10 -5 0
-10 -4 -10 -10z"/>
<path d="M2287 743 c-12 -12 -7 -33 8 -33 17 0 19 9 7 28 -5 7 -11 9 -15 5z"/>
<path d="M2357 715 c-24 -29 -25 -34 -10 -39 10 -4 22 -1 28 6 6 7 19 18 30
24 11 6 21 19 23 28 6 29 -41 17 -71 -19z"/>
<path d="M1490 692 c0 -26 7 -45 20 -57 18 -17 20 -16 50 13 30 30 39 52 21
52 -5 0 -11 -6 -13 -12 -6 -18 -58 6 -58 27 0 8 -4 15 -10 15 -5 0 -10 -17
-10 -38z"/>
<path d="M1745 710 c4 -6 11 -8 16 -5 14 9 11 15 -7 15 -8 0 -12 -5 -9 -10z"/>
<path d="M2231 717 c-2 -17 20 -47 30 -42 14 9 11 25 -5 25 -8 0 -17 6 -19 13
-3 6 -6 8 -6 4z"/>
<path d="M1793 703 c-18 -7 -16 -33 2 -33 8 0 15 9 15 20 0 11 -1 20 -2 19 -2
0 -9 -3 -15 -6z"/>
<path d="M1991 682 c-16 -29 -14 -32 14 -32 28 0 31 8 11 35 -13 18 -14 18
-25 -3z"/>
<path d="M1808 656 c-19 -7 -27 -18 -32 -45 -8 -52 -7 -99 3 -105 16 -11 20
-78 6 -119 -12 -34 -12 -44 0 -67 17 -33 5 -90 -27 -122 -14 -14 -17 -23 -9
-31 7 -7 12 -5 17 6 3 9 10 17 15 17 13 0 11 -28 -2 -32 -6 -2 -12 -18 -13
-36 -1 -17 -7 -37 -14 -44 -9 -9 -8 -16 5 -30 15 -17 15 -19 -3 -33 -18 -13
-16 -14 23 -15 35 0 40 3 36 18 -2 10 1 30 6 45 8 22 16 27 30 22 11 -3 22 -1
26 4 3 6 -5 13 -19 17 -16 4 -26 15 -30 36 -10 49 -7 75 9 82 18 7 30 -32 20
-64 -5 -17 -3 -21 10 -18 38 7 40 34 7 74 -36 44 -39 61 -15 79 17 13 17 14 0
33 -14 16 -16 24 -7 47 6 15 8 36 4 47 -3 10 -1 24 4 31 6 7 10 43 10 80 -2
75 4 87 32 69 29 -18 32 -15 28 21 -3 30 -6 32 -48 37 -25 3 -57 1 -72 -4z"/>
<path d="M2667 663 c-4 -3 -7 -27 -7 -52 l0 -46 32 32 c31 32 31 33 13 53 -19
21 -28 24 -38 13z"/>
<path d="M1157 622 c-15 -3 -17 -10 -12 -35 4 -18 11 -36 16 -41 12 -14 11
-46 -1 -46 -6 0 -13 7 -16 15 -10 24 -24 17 -24 -10 0 -14 7 -28 15 -31 8 -4
15 -11 15 -17 0 -6 7 -18 16 -28 19 -22 11 -56 -17 -64 -25 -8 -25 -41 1 -55
11 -6 20 -15 20 -21 0 -6 -9 -13 -20 -16 -25 -7 -25 -14 0 -45 20 -26 16 -46
-6 -27 -19 16 -23 -3 -9 -44 15 -43 46 -77 70 -77 19 0 19 7 0 26 -19 20 -19
55 0 80 17 23 19 76 3 92 -8 8 -8 15 0 25 9 10 9 29 1 71 -5 31 -7 62 -2 69
13 21 11 110 -4 144 -16 37 -21 41 -46 35z"/>
<path d="M2403 616 c-21 -10 -22 -15 -18 -92 3 -64 1 -85 -10 -94 -25 -21 -18
-40 15 -40 25 0 30 -4 30 -25 0 -27 -18 -33 -38 -13 -6 6 -15 8 -19 4 -5 -4
-1 -13 8 -19 20 -15 14 -77 -7 -77 -21 0 -28 -21 -11 -37 16 -16 87 -26 87
-12 0 4 -5 9 -12 11 -17 6 -10 99 9 120 16 18 12 48 -6 48 -11 0 -7 102 4 121
4 5 -1 21 -10 35 -14 22 -14 26 -1 40 8 8 13 21 10 29 -4 8 -7 14 -8 14 0 -1
-11 -6 -23 -13z"/>
<path d="M275 610 c-3 -5 1 -10 10 -10 9 0 13 5 10 10 -3 6 -8 10 -10 10 -2 0
-7 -4 -10 -10z"/>
<path d="M75 600 c3 -5 13 -10 21 -10 8 0 14 5 14 10 0 6 -9 10 -21 10 -11 0
-17 -4 -14 -10z"/>
<path d="M1600 600 c0 -5 5 -10 11 -10 5 0 7 5 4 10 -3 6 -8 10 -11 10 -2 0
-4 -4 -4 -10z"/>
<path d="M1955 550 c-11 -12 -16 -29 -13 -44 3 -17 0 -27 -11 -31 -13 -5 -13
-7 -1 -15 10 -6 17 -1 27 17 7 14 13 31 13 39 0 7 7 17 16 22 13 7 13 10 1 20
-11 9 -18 8 -32 -8z"/>
<path d="M2016 552 c-2 -4 2 -18 10 -32 l13 -25 1 33 c0 29 -12 43 -24 24z"/>
<path d="M215 537 c-4 -10 -5 -21 -1 -24 10 -10 18 4 13 24 -4 17 -4 17 -12 0z"/>
<path d="M345 540 c3 -5 8 -10 11 -10 2 0 4 5 4 10 0 6 -5 10 -11 10 -5 0 -7
-4 -4 -10z"/>
<path d="M2262 538 c-16 -16 -15 -28 3 -28 8 0 15 9 15 20 0 23 -2 24 -18 8z"/>
<path d="M275 520 c-3 -5 1 -10 9 -10 9 0 16 5 16 10 0 6 -4 10 -9 10 -6 0
-13 -4 -16 -10z"/>
<path d="M1622 521 c4 -13 18 -16 19 -4 0 4 -5 9 -11 12 -7 2 -11 -2 -8 -8z"/>
<path d="M2646 514 c-7 -18 0 -34 15 -34 5 0 9 11 9 25 0 28 -15 34 -24 9z"/>
<path d="M0 462 c0 -35 4 -51 11 -47 5 4 8 19 5 33 -8 37 9 63 18 28 6 -26 36
-37 36 -13 -1 40 -13 56 -41 54 -28 -2 -29 -4 -29 -55z"/>
<path d="M100 500 c0 -11 7 -20 15 -20 8 0 15 9 15 20 0 11 -7 20 -15 20 -8 0
-15 -9 -15 -20z"/>
<path d="M496 505 c4 -8 8 -15 10 -15 2 0 4 7 4 15 0 8 -4 15 -10 15 -5 0 -7
-7 -4 -15z"/>
<path d="M628 502 c-7 -10 -22 -24 -33 -30 -17 -9 -17 -11 -3 -12 34 0 68 19
68 40 0 25 -15 26 -32 2z"/>
<path d="M357 504 c-10 -11 -9 -44 2 -44 15 0 19 13 12 33 -4 10 -10 15 -14
11z"/>
<path d="M692 488 c2 -13 10 -24 19 -26 13 -2 15 3 12 23 -7 32 -36 34 -31 3z"/>
<path d="M750 490 c0 -5 5 -10 10 -10 6 0 10 5 10 10 0 6 -4 10 -10 10 -5 0
-10 -4 -10 -10z"/>
<path d="M2084 465 c-12 -30 -17 -35 -29 -25 -8 7 -15 19 -15 27 0 19 -20 6
-29 -21 -7 -17 -4 -22 13 -26 13 -4 25 -19 32 -40 11 -33 12 -33 15 -10 3 17
11 26 26 28 40 6 58 93 20 100 -12 3 -22 -7 -33 -33z"/>
<path d="M235 460 c-3 -5 -2 -10 4 -10 5 0 13 5 16 10 3 6 2 10 -4 10 -5 0
-13 -4 -16 -10z"/>
<path d="M464 454 c3 -9 6 -18 6 -20 0 -2 5 -4 10 -4 6 0 10 9 10 20 0 12 -7
20 -16 20 -11 0 -14 -5 -10 -16z"/>
<path d="M530 460 c0 -5 5 -10 10 -10 6 0 10 5 10 10 0 6 -4 10 -10 10 -5 0
-10 -4 -10 -10z"/>
<path d="M840 454 c0 -8 5 -12 10 -9 6 3 10 10 10 16 0 5 -4 9 -10 9 -5 0 -10
-7 -10 -16z"/>
<path d="M1481 433 c-8 -17 -8 -30 -2 -36 14 -14 31 1 31 28 0 34 -15 39 -29
8z"/>
<path d="M2669 444 c-21 -26 -23 -70 -2 -78 25 -10 31 4 24 53 -6 41 -7 42
-22 25z"/>
<path d="M2458 423 c7 -3 16 -2 19 1 4 3 -2 6 -13 5 -11 0 -14 -3 -6 -6z"/>
<path d="M2280 391 c0 -5 5 -13 10 -16 6 -3 10 -2 10 4 0 5 -4 13 -10 16 -5 3
-10 2 -10 -4z"/>
<path d="M1937 369 c-10 -11 -16 -28 -14 -37 4 -14 6 -13 12 5 10 31 45 41 62
17 16 -23 23 -16 12 14 -11 28 -48 29 -72 1z"/>
<path d="M1478 339 c-22 -23 -23 -52 -3 -69 12 -10 13 -16 4 -26 -11 -14 -3
-19 19 -11 8 2 11 127 2 126 -3 0 -13 -9 -22 -20z"/>
<path d="M1590 350 c-12 -8 -11 -10 8 -10 12 0 22 5 22 10 0 13 -11 13 -30 0z"/>
<path d="M2020 292 c0 -21 -6 -44 -12 -50 -10 -10 -10 -15 -1 -20 6 -4 11 -24
11 -46 0 -29 -4 -40 -19 -43 -22 -6 -26 -23 -5 -23 8 0 21 -2 28 -5 9 -4 19 4
25 18 8 17 20 24 37 24 14 1 33 6 41 13 14 12 14 15 -4 34 -10 12 -22 31 -25
42 -4 12 -20 27 -36 34 -31 13 -37 24 -20 35 15 9 12 25 -5 25 -11 0 -15 -11
-15 -38z m64 -94 c21 -42 21 -43 -14 -18 -18 13 -27 26 -23 35 8 23 20 18 37
-17z"/>
<path d="M2677 324 c-4 -4 -7 -16 -7 -26 0 -10 -3 -18 -7 -18 -5 0 -16 -11
-25 -24 -16 -22 -16 -27 -2 -55 17 -34 34 -41 34 -13 0 10 5 23 12 30 6 6 12
24 14 39 1 15 4 37 6 47 3 19 -13 32 -25 20z"/>
<path d="M2514 306 c-9 -23 0 -51 16 -51 9 0 15 11 16 33 2 33 -21 46 -32 18z"/>
<path d="M2217 294 c-8 -8 3 -34 14 -34 5 0 9 9 9 20 0 19 -11 26 -23 14z"/>
<path d="M2308 263 c7 -3 16 -2 19 1 4 3 -2 6 -13 5 -11 0 -14 -3 -6 -6z"/>
<path d="M1575 239 c-10 -15 3 -25 16 -12 7 7 7 13 1 17 -6 3 -14 1 -17 -5z"/>
<path d="M2450 230 c0 -13 7 -20 20 -20 24 0 27 25 4 34 -23 9 -24 8 -24 -14z"/>
<path d="M772 190 c-6 -11 -12 -27 -12 -35 0 -10 -10 -15 -27 -15 -14 0 -34
-7 -43 -15 -13 -12 -23 -13 -44 -5 -15 5 -32 8 -36 5 -5 -3 -19 0 -30 7 -17
11 -22 11 -29 0 -5 -8 -17 -11 -33 -7 -14 4 -42 2 -62 -3 -30 -9 -40 -7 -60 9
-25 20 -25 20 -46 -1 -27 -27 -56 -26 -64 2 -4 18 -8 20 -18 10 -10 -10 -10
-17 0 -33 8 -12 11 -23 8 -26 -7 -7 -76 19 -76 29 0 4 -8 8 -19 8 -10 0 -24 7
-31 15 -15 18 -31 19 -64 4 -21 -10 -23 -15 -15 -31 5 -10 7 -23 4 -28 -9 -15
-45 -12 -45 4 0 8 -7 16 -15 20 -21 8 -20 -47 1 -68 21 -21 70 -20 83 2 10 16
12 16 25 0 15 -21 76 -24 94 -6 23 23 97 27 134 7 14 -8 23 -8 31 0 6 6 24 11
39 11 16 0 40 8 54 17 23 15 28 15 52 1 31 -17 124 -16 130 1 2 6 24 11 48 11
41 0 49 -6 45 -32 0 -5 4 -8 9 -8 6 0 10 7 10 15 0 16 5 18 67 15 37 -1 43 1
49 24 3 14 12 30 20 36 12 10 10 65 -3 79 -2 3 -18 -12 -37 -32 -22 -25 -42
-37 -60 -37 -14 0 -26 5 -26 10 0 6 9 10 19 10 20 0 35 25 25 41 -9 16 -39 10
-52 -11z m-637 -100 c3 -5 -3 -10 -14 -10 -12 0 -21 5 -21 10 0 6 6 10 14 10
8 0 18 -4 21 -10z"/>
<path d="M2280 200 c0 -5 5 -10 10 -10 6 0 10 5 10 10 0 6 -4 10 -10 10 -5 0
-10 -4 -10 -10z"/>
<path d="M2329 173 c-2 -34 3 -48 24 -66 22 -17 22 -18 3 -32 -11 -8 -20 -28
-20 -45 -1 -27 2 -30 30 -30 28 0 30 2 26 30 -3 18 0 30 7 30 21 0 11 37 -19
75 -16 21 -30 42 -30 46 0 17 -20 9 -21 -8z"/>
<path d="M2456 165 c4 -8 8 -15 10 -15 2 0 4 7 4 15 0 8 -4 15 -10 15 -5 0 -7
-7 -4 -15z"/>
<path d="M2677 164 c-8 -8 3 -34 14 -34 11 0 12 27 0 34 -4 3 -11 3 -14 0z"/>
<path d="M1478 78 c-6 -59 -2 -78 17 -78 10 0 13 16 12 62 -2 78 -22 89 -29
16z"/>
<path d="M2087 93 c-4 -3 -7 -26 -7 -50 0 -36 3 -43 19 -43 22 0 31 19 31 66
0 26 -4 34 -18 34 -10 0 -22 -3 -25 -7z"/>
<path d="M1988 63 c6 -2 18 -2 25 0 6 3 1 5 -13 5 -14 0 -19 -2 -12 -5z"/>
<path d="M2650 60 c0 -5 5 -10 10 -10 6 0 10 5 10 10 0 6 -4 10 -10 10 -5 0
-10 -4 -10 -10z"/>
<path d="M2029 50 c-5 -28 -4 -50 2 -50 13 0 20 33 9 44 -5 5 -10 8 -11 6z"/>
<path d="M2261 37 c2 -1 12 -9 22 -16 14 -12 17 -11 17 3 0 10 -8 16 -22 16
-12 0 -19 -1 -17 -3z"/>
<path d="M1158 22 c-45 -6 -32 -22 17 -22 25 0 45 2 45 5 0 10 -37 21 -62 17z"/>
</g>
</svg>
